<?xml version="1.0" encoding="UTF-8" standalone="no"?>
<!DOCTYPE svg PUBLIC "-//W3C//DTD SVG 1.1//EN"
 "http://www.w3.org/Graphics/SVG/1.1/DTD/svg11.dtd">
<!-- Generated by graphviz version 2.26.3 (20100126.1600)
 -->
<!-- Title: Act Schema graph Pages: 1 -->
<svg width="612pt" height="791pt"
 viewBox="0.00 0.00 612.00 790.65" xmlns="http://www.w3.org/2000/svg" xmlns:xlink="http://www.w3.org/1999/xlink">
<g id="graph1" class="graph" transform="scale(0.575434 0.575434) rotate(0) translate(4 1370)">
<title>Act Schema graph</title>
<polygon fill="lightgoldenrodyellow" stroke="lightgoldenrodyellow" points="-4,5 -4,-1370 1060.55,-1370 1060.55,5 -4,5"/>
<!-- node1 -->
<g id="node1" class="node"><title>node1</title>
<polygon fill="white" stroke="black" points="406.045,-852.5 406.045,-911.5 605.045,-911.5 605.045,-852.5 406.045,-852.5"/>
<text text-anchor="middle" x="428.045" y="-877.9" font-family="Times Roman,serif" font-size="14.00">bios</text>
<polyline fill="none" stroke="black" points="450.045,-852.5 450.045,-911.5 "/>
<text text-anchor="start" x="458.045" y="-894.9" font-family="Times Roman,serif" font-size="14.00">&#45; user_id integer [U]</text>
<text text-anchor="start" x="458.045" y="-877.9" font-family="Times Roman,serif" font-size="14.00">&#45; lang text [U]</text>
<text text-anchor="start" x="458.045" y="-860.9" font-family="Times Roman,serif" font-size="14.00">&#45; bio text</text>
</g>
<!-- node2 -->
<g id="node2" class="node"><title>node2</title>
<polygon fill="white" stroke="black" points="21.5455,-756 21.5455,-900 275.545,-900 275.545,-756 21.5455,-756"/>
<text text-anchor="middle" x="53.0455" y="-823.9" font-family="Times Roman,serif" font-size="14.00">events</text>
<polyline fill="none" stroke="black" points="84.5455,-756 84.5455,-900 "/>
<text text-anchor="start" x="92.5455" y="-883.4" font-family="Times Roman,serif" font-size="14.00">&#45; event_id integer [PA]</text>
<text text-anchor="start" x="92.5455" y="-866.4" font-family="Times Roman,serif" font-size="14.00">&#45; conf_id text</text>
<text text-anchor="start" x="92.5455" y="-849.4" font-family="Times Roman,serif" font-size="14.00">&#45; title text</text>
<text text-anchor="start" x="92.5455" y="-832.4" font-family="Times Roman,serif" font-size="14.00">&#45; abstract text [N]</text>
<text text-anchor="start" x="92.5455" y="-815.4" font-family="Times Roman,serif" font-size="14.00">&#45; url_abstract text [N]</text>
<text text-anchor="start" x="92.5455" y="-798.4" font-family="Times Roman,serif" font-size="14.00">&#45; room text [N]</text>
<text text-anchor="start" x="92.5455" y="-781.4" font-family="Times Roman,serif" font-size="14.00">&#45; duration integer [N]</text>
<text text-anchor="start" x="92.5455" y="-764.4" font-family="Times Roman,serif" font-size="14.00">&#45; datetime timestamp [N]</text>
</g>
<!-- node3 -->
<g id="node3" class="node"><title>node3</title>
<polygon fill="white" stroke="black" points="22.0455,-918 22.0455,-960 275.045,-960 275.045,-918 22.0455,-918"/>
<text text-anchor="middle" x="73.5455" y="-934.9" font-family="Times Roman,serif" font-size="14.00">invoice_num</text>
<polyline fill="none" stroke="black" points="125.045,-918 125.045,-960 "/>
<text text-anchor="start" x="133.045" y="-943.4" font-family="Times Roman,serif" font-size="14.00">&#45; conf_id text [PK]</text>
<text text-anchor="start" x="133.045" y="-926.4" font-family="Times Roman,serif" font-size="14.00">&#45; next_num integer</text>
</g>
<!-- node4 -->
<g id="node4" class="node"><title>node4</title>
<polygon fill="white" stroke="black" points="758.545,-544 758.545,-756 1010.55,-756 1010.55,-544 758.545,-544"/>
<text text-anchor="middle" x="794.045" y="-645.9" font-family="Times Roman,serif" font-size="14.00">invoices</text>
<polyline fill="none" stroke="black" points="829.545,-544 829.545,-756 "/>
<text text-anchor="start" x="837.545" y="-739.4" font-family="Times Roman,serif" font-size="14.00">&#45; invoice_id integer [PA]</text>
<text text-anchor="start" x="837.545" y="-722.4" font-family="Times Roman,serif" font-size="14.00">&#45; order_id integer [U]</text>
<text text-anchor="start" x="837.545" y="-705.4" font-family="Times Roman,serif" font-size="14.00">&#45; datetime timestamp</text>
<text text-anchor="start" x="837.545" y="-688.4" font-family="Times Roman,serif" font-size="14.00">&#45; invoice_no integer</text>
<text text-anchor="start" x="837.545" y="-671.4" font-family="Times Roman,serif" font-size="14.00">&#45; amount integer</text>
<text text-anchor="start" x="837.545" y="-654.4" font-family="Times Roman,serif" font-size="14.00">&#45; means text</text>
<text text-anchor="start" x="837.545" y="-637.4" font-family="Times Roman,serif" font-size="14.00">&#45; currency text</text>
<text text-anchor="start" x="837.545" y="-620.4" font-family="Times Roman,serif" font-size="14.00">&#45; first_name text</text>
<text text-anchor="start" x="837.545" y="-603.4" font-family="Times Roman,serif" font-size="14.00">&#45; last_name text [N]</text>
<text text-anchor="start" x="837.545" y="-586.4" font-family="Times Roman,serif" font-size="14.00">&#45; company text [N]</text>
<text text-anchor="start" x="837.545" y="-569.4" font-family="Times Roman,serif" font-size="14.00">&#45; address text [N]</text>
<text text-anchor="start" x="837.545" y="-552.4" font-family="Times Roman,serif" font-size="14.00">&#45; vat text [N]</text>
</g>
<!-- node5 -->
<g id="node5" class="node"><title>node5</title>
<polygon fill="white" stroke="black" points="394.045,-740.5 394.045,-833.5 617.045,-833.5 617.045,-740.5 394.045,-740.5"/>
<text text-anchor="middle" x="420.545" y="-782.9" font-family="Times Roman,serif" font-size="14.00">news</text>
<polyline fill="none" stroke="black" points="447.045,-740.5 447.045,-833.5 "/>
<text text-anchor="start" x="455.045" y="-816.9" font-family="Times Roman,serif" font-size="14.00">&#45; news_id integer [PA]</text>
<text text-anchor="start" x="455.045" y="-799.9" font-family="Times Roman,serif" font-size="14.00">&#45; conf_id text</text>
<text text-anchor="start" x="455.045" y="-782.9" font-family="Times Roman,serif" font-size="14.00">&#45; datetime timestamp</text>
<text text-anchor="start" x="455.045" y="-765.9" font-family="Times Roman,serif" font-size="14.00">&#45; user_id integer</text>
<text text-anchor="start" x="455.045" y="-748.9" font-family="Times Roman,serif" font-size="14.00">&#45; published boolean</text>
</g>
<!-- node6 -->
<g id="node6" class="node"><title>node6</title>
<polygon fill="white" stroke="black" points="731.545,-774.5 731.545,-867.5 1037.55,-867.5 1037.55,-774.5 731.545,-774.5"/>
<text text-anchor="middle" x="780.545" y="-816.9" font-family="Times Roman,serif" font-size="14.00">news_items</text>
<polyline fill="none" stroke="black" points="829.545,-774.5 829.545,-867.5 "/>
<text text-anchor="start" x="837.545" y="-850.9" font-family="Times Roman,serif" font-size="14.00">&#45; news_item_id integer [PA]</text>
<text text-anchor="start" x="837.545" y="-833.9" font-family="Times Roman,serif" font-size="14.00">&#45; news_id integer [U]</text>
<text text-anchor="start" x="837.545" y="-816.9" font-family="Times Roman,serif" font-size="14.00">&#45; lang text [U]</text>
<text text-anchor="start" x="837.545" y="-799.9" font-family="Times Roman,serif" font-size="14.00">&#45; title text</text>
<text text-anchor="start" x="837.545" y="-782.9" font-family="Times Roman,serif" font-size="14.00">&#45; text text</text>
</g>
<!-- node5&#45;&gt;node6 -->
<g id="edge2" class="edge"><title>node5&#45;&gt;node6</title>
<path fill="none" stroke="black" d="M617.208,-797.017C649.701,-799.932 685.889,-803.179 720.88,-806.318"/>
<polygon fill="black" stroke="black" points="720.93,-809.836 731.203,-807.244 721.555,-802.864 720.93,-809.836"/>
</g>
<!-- node7 -->
<g id="node7" class="node"><title>node7</title>
<polygon fill="white" stroke="black" points="753.045,-432.5 753.045,-525.5 1016.05,-525.5 1016.05,-432.5 753.045,-432.5"/>
<text text-anchor="middle" x="802.045" y="-474.9" font-family="Times Roman,serif" font-size="14.00">order_items</text>
<polyline fill="none" stroke="black" points="851.045,-432.5 851.045,-525.5 "/>
<text text-anchor="start" x="859.045" y="-508.9" font-family="Times Roman,serif" font-size="14.00">&#45; item_id integer [PA]</text>
<text text-anchor="start" x="859.045" y="-491.9" font-family="Times Roman,serif" font-size="14.00">&#45; order_id integer</text>
<text text-anchor="start" x="859.045" y="-474.9" font-family="Times Roman,serif" font-size="14.00">&#45; amount integer</text>
<text text-anchor="start" x="859.045" y="-457.9" font-family="Times Roman,serif" font-size="14.00">&#45; name text</text>
<text text-anchor="start" x="859.045" y="-440.9" font-family="Times Roman,serif" font-size="14.00">&#45; registration boolean</text>
</g>
<!-- node8 -->
<g id="node8" class="node"><title>node8</title>
<polygon fill="white" stroke="black" points="390.545,-578 390.545,-722 620.545,-722 620.545,-578 390.545,-578"/>
<text text-anchor="middle" x="420.545" y="-645.9" font-family="Times Roman,serif" font-size="14.00">orders</text>
<polyline fill="none" stroke="black" points="450.545,-578 450.545,-722 "/>
<text text-anchor="start" x="458.545" y="-705.4" font-family="Times Roman,serif" font-size="14.00">&#45; order_id integer [PA]</text>
<text text-anchor="start" x="458.545" y="-688.4" font-family="Times Roman,serif" font-size="14.00">&#45; conf_id text</text>
<text text-anchor="start" x="458.545" y="-671.4" font-family="Times Roman,serif" font-size="14.00">&#45; user_id integer</text>
<text text-anchor="start" x="458.545" y="-654.4" font-family="Times Roman,serif" font-size="14.00">&#45; datetime timestamp</text>
<text text-anchor="start" x="458.545" y="-637.4" font-family="Times Roman,serif" font-size="14.00">&#45; means text</text>
<text text-anchor="start" x="458.545" y="-620.4" font-family="Times Roman,serif" font-size="14.00">&#45; currency text</text>
<text text-anchor="start" x="458.545" y="-603.4" font-family="Times Roman,serif" font-size="14.00">&#45; status text</text>
<text text-anchor="start" x="458.545" y="-586.4" font-family="Times Roman,serif" font-size="14.00">&#45; type text [N]</text>
</g>
<!-- node8&#45;&gt;node4 -->
<g id="edge4" class="edge"><title>node8&#45;&gt;node4</title>
<path fill="none" stroke="black" d="M620.802,-650C660.939,-650 706.356,-650 748.049,-650"/>
<polygon fill="black" stroke="black" points="748.282,-653.5 758.282,-650 748.282,-646.5 748.282,-653.5"/>
</g>
<!-- node8&#45;&gt;node7 -->
<g id="edge6" class="edge"><title>node8&#45;&gt;node7</title>
<path fill="none" stroke="black" d="M620.694,-588.051C655.858,-570.048 694.918,-550.954 731.545,-535 735.743,-533.172 740.022,-531.35 744.355,-529.543"/>
<polygon fill="black" stroke="black" points="745.998,-532.652 753.915,-525.611 743.335,-526.178 745.998,-532.652"/>
</g>
<!-- node9 -->
<g id="node9" class="node"><title>node9</title>
<polygon fill="white" stroke="black" points="355.045,-432.5 355.045,-559.5 656.045,-559.5 656.045,-432.5 355.045,-432.5"/>
<text text-anchor="middle" x="410.045" y="-491.9" font-family="Times Roman,serif" font-size="14.00">participations</text>
<polyline fill="none" stroke="black" points="465.045,-432.5 465.045,-559.5 "/>
<text text-anchor="start" x="473.045" y="-542.9" font-family="Times Roman,serif" font-size="14.00">&#45; conf_id text</text>
<text text-anchor="start" x="473.045" y="-525.9" font-family="Times Roman,serif" font-size="14.00">&#45; user_id integer</text>
<text text-anchor="start" x="473.045" y="-508.9" font-family="Times Roman,serif" font-size="14.00">&#45; tshirt_size text [N]</text>
<text text-anchor="start" x="473.045" y="-491.9" font-family="Times Roman,serif" font-size="14.00">&#45; nb_family integer [N]</text>
<text text-anchor="start" x="473.045" y="-474.9" font-family="Times Roman,serif" font-size="14.00">&#45; datetime timestamp [N]</text>
<text text-anchor="start" x="473.045" y="-457.9" font-family="Times Roman,serif" font-size="14.00">&#45; ip text [N]</text>
<text text-anchor="start" x="473.045" y="-440.9" font-family="Times Roman,serif" font-size="14.00">&#45; attended boolean [N]</text>
</g>
<!-- node10 -->
<g id="node10" class="node"><title>node10</title>
<polygon fill="white" stroke="black" points="16.0455,-978.5 16.0455,-1105.5 281.045,-1105.5 281.045,-978.5 16.0455,-978.5"/>
<text text-anchor="middle" x="62.0455" y="-1037.9" font-family="Times Roman,serif" font-size="14.00">pm_groups</text>
<polyline fill="none" stroke="black" points="108.045,-978.5 108.045,-1105.5 "/>
<text text-anchor="start" x="116.045" y="-1088.9" font-family="Times Roman,serif" font-size="14.00">&#45; group_id integer [PA]</text>
<text text-anchor="start" x="116.045" y="-1071.9" font-family="Times Roman,serif" font-size="14.00">&#45; xml_group_id integer</text>
<text text-anchor="start" x="116.045" y="-1054.9" font-family="Times Roman,serif" font-size="14.00">&#45; name text</text>
<text text-anchor="start" x="116.045" y="-1037.9" font-family="Times Roman,serif" font-size="14.00">&#45; status text</text>
<text text-anchor="start" x="116.045" y="-1020.9" font-family="Times Roman,serif" font-size="14.00">&#45; continent text</text>
<text text-anchor="start" x="116.045" y="-1003.9" font-family="Times Roman,serif" font-size="14.00">&#45; country text</text>
<text text-anchor="start" x="116.045" y="-986.9" font-family="Times Roman,serif" font-size="14.00">&#45; state text</text>
</g>
<!-- node11 -->
<g id="node11" class="node"><title>node11</title>
<polygon fill="white" stroke="black" points="412.545,-354.5 412.545,-413.5 598.545,-413.5 598.545,-354.5 412.545,-354.5"/>
<text text-anchor="middle" x="440.545" y="-379.9" font-family="Times Roman,serif" font-size="14.00">rights</text>
<polyline fill="none" stroke="black" points="468.545,-354.5 468.545,-413.5 "/>
<text text-anchor="start" x="476.545" y="-396.9" font-family="Times Roman,serif" font-size="14.00">&#45; right_id text</text>
<text text-anchor="start" x="476.545" y="-379.9" font-family="Times Roman,serif" font-size="14.00">&#45; conf_id text</text>
<text text-anchor="start" x="476.545" y="-362.9" font-family="Times Roman,serif" font-size="14.00">&#45; user_id integer</text>
</g>
<!-- node12 -->
<g id="node12" class="node"><title>node12</title>
<polygon fill="white" stroke="black" points="20.0455,-1124 20.0455,-1160 277.045,-1160 277.045,-1124 20.0455,-1124"/>
<text text-anchor="middle" x="54.0455" y="-1137.9" font-family="Times Roman,serif" font-size="14.00">schema</text>
<polyline fill="none" stroke="black" points="88.0455,-1124 88.0455,-1160 "/>
<text text-anchor="start" x="96.0455" y="-1137.9" font-family="Times Roman,serif" font-size="14.00">&#45; current_version integer</text>
</g>
<!-- node13 -->
<g id="node13" class="node"><title>node13</title>
<polygon fill="white" stroke="black" points="48.0455,-1178.5 48.0455,-1271.5 249.045,-1271.5 249.045,-1178.5 48.0455,-1178.5"/>
<text text-anchor="middle" x="71.0455" y="-1220.9" font-family="Times Roman,serif" font-size="14.00">tags</text>
<polyline fill="none" stroke="black" points="94.0455,-1178.5 94.0455,-1271.5 "/>
<text text-anchor="start" x="102.045" y="-1254.9" font-family="Times Roman,serif" font-size="14.00">&#45; tag_id integer [PA]</text>
<text text-anchor="start" x="102.045" y="-1237.9" font-family="Times Roman,serif" font-size="14.00">&#45; conf_id text</text>
<text text-anchor="start" x="102.045" y="-1220.9" font-family="Times Roman,serif" font-size="14.00">&#45; tag text</text>
<text text-anchor="start" x="102.045" y="-1203.9" font-family="Times Roman,serif" font-size="14.00">&#45; type text</text>
<text text-anchor="start" x="102.045" y="-1186.9" font-family="Times Roman,serif" font-size="14.00">&#45; tagged_id text</text>
</g>
<!-- node14 -->
<g id="node14" class="node"><title>node14</title>
<polygon fill="white" stroke="black" points="385.045,-0.5 385.045,-297.5 626.045,-297.5 626.045,-0.5 385.045,-0.5"/>
<text text-anchor="middle" x="410.045" y="-144.9" font-family="Times Roman,serif" font-size="14.00">talks</text>
<polyline fill="none" stroke="black" points="435.045,-0.5 435.045,-297.5 "/>
<text text-anchor="start" x="443.045" y="-280.9" font-family="Times Roman,serif" font-size="14.00">&#45; talk_id integer [PA]</text>
<text text-anchor="start" x="443.045" y="-263.9" font-family="Times Roman,serif" font-size="14.00">&#45; conf_id text</text>
<text text-anchor="start" x="443.045" y="-246.9" font-family="Times Roman,serif" font-size="14.00">&#45; user_id integer</text>
<text text-anchor="start" x="443.045" y="-229.9" font-family="Times Roman,serif" font-size="14.00">&#45; title text</text>
<text text-anchor="start" x="443.045" y="-212.9" font-family="Times Roman,serif" font-size="14.00">&#45; abstract text [N]</text>
<text text-anchor="start" x="443.045" y="-195.9" font-family="Times Roman,serif" font-size="14.00">&#45; url_abstract text [N]</text>
<text text-anchor="start" x="443.045" y="-178.9" font-family="Times Roman,serif" font-size="14.00">&#45; url_talk text [N]</text>
<text text-anchor="start" x="443.045" y="-161.9" font-family="Times Roman,serif" font-size="14.00">&#45; duration integer [N]</text>
<text text-anchor="start" x="443.045" y="-144.9" font-family="Times Roman,serif" font-size="14.00">&#45; lightning boolean</text>
<text text-anchor="start" x="443.045" y="-127.9" font-family="Times Roman,serif" font-size="14.00">&#45; accepted boolean</text>
<text text-anchor="start" x="443.045" y="-110.9" font-family="Times Roman,serif" font-size="14.00">&#45; confirmed boolean</text>
<text text-anchor="start" x="443.045" y="-93.9" font-family="Times Roman,serif" font-size="14.00">&#45; comment text [N]</text>
<text text-anchor="start" x="443.045" y="-76.9" font-family="Times Roman,serif" font-size="14.00">&#45; room text [N]</text>
<text text-anchor="start" x="443.045" y="-59.9" font-family="Times Roman,serif" font-size="14.00">&#45; datetime timestamp [N]</text>
<text text-anchor="start" x="443.045" y="-42.9" font-family="Times Roman,serif" font-size="14.00">&#45; track_id integer [N]</text>
<text text-anchor="start" x="443.045" y="-25.9" font-family="Times Roman,serif" font-size="14.00">&#45; level integer [N]</text>
<text text-anchor="start" x="443.045" y="-8.9" font-family="Times Roman,serif" font-size="14.00">&#45; lang text [N]</text>
</g>
<!-- node17 -->
<g id="node17" class="node"><title>node17</title>
<polygon fill="white" stroke="black" points="776.045,-208.5 776.045,-267.5 993.045,-267.5 993.045,-208.5 776.045,-208.5"/>
<text text-anchor="middle" x="819.545" y="-233.9" font-family="Times Roman,serif" font-size="14.00">user_talks</text>
<polyline fill="none" stroke="black" points="863.045,-208.5 863.045,-267.5 "/>
<text text-anchor="start" x="871.045" y="-250.9" font-family="Times Roman,serif" font-size="14.00">&#45; user_id integer</text>
<text text-anchor="start" x="871.045" y="-233.9" font-family="Times Roman,serif" font-size="14.00">&#45; conf_id text</text>
<text text-anchor="start" x="871.045" y="-216.9" font-family="Times Roman,serif" font-size="14.00">&#45; talk_id integer</text>
</g>
<!-- node14&#45;&gt;node17 -->
<g id="edge8" class="edge"><title>node14&#45;&gt;node17</title>
<path fill="none" stroke="black" d="M626.245,-177.344C670.867,-187.822 721.38,-199.684 765.825,-210.121"/>
<polygon fill="black" stroke="black" points="765.265,-213.585 775.8,-212.464 766.865,-206.77 765.265,-213.585"/>
</g>
<!-- node15 -->
<g id="node15" class="node"><title>node15</title>
<polygon fill="white" stroke="black" points="35.0455,-111 35.0455,-187 262.045,-187 262.045,-111 35.0455,-111"/>
<text text-anchor="middle" x="64.5455" y="-144.9" font-family="Times Roman,serif" font-size="14.00">tracks</text>
<polyline fill="none" stroke="black" points="94.0455,-111 94.0455,-187 "/>
<text text-anchor="start" x="102.045" y="-170.4" font-family="Times Roman,serif" font-size="14.00">&#45; track_id integer [PA]</text>
<text text-anchor="start" x="102.045" y="-153.4" font-family="Times Roman,serif" font-size="14.00">&#45; conf_id text</text>
<text text-anchor="start" x="102.045" y="-136.4" font-family="Times Roman,serif" font-size="14.00">&#45; title text</text>
<text text-anchor="start" x="102.045" y="-119.4" font-family="Times Roman,serif" font-size="14.00">&#45; description text [N]</text>
</g>
<!-- node15&#45;&gt;node14 -->
<g id="edge10" class="edge"><title>node15&#45;&gt;node14</title>
<path fill="none" stroke="black" d="M262.484,-149C298.203,-149 337.909,-149 374.7,-149"/>
<polygon fill="none" stroke="black" points="374.994,-152.5 384.994,-149 374.994,-145.5 374.994,-152.5"/>
</g>
<!-- node16 -->
<g id="node16" class="node"><title>node16</title>
<polygon fill="white" stroke="black" points="16.5455,-1290 16.5455,-1366 280.545,-1366 280.545,-1290 16.5455,-1290"/>
<text text-anchor="middle" x="53.0455" y="-1323.9" font-family="Times Roman,serif" font-size="14.00">twostep</text>
<polyline fill="none" stroke="black" points="89.5455,-1290 89.5455,-1366 "/>
<text text-anchor="start" x="97.5455" y="-1349.4" font-family="Times Roman,serif" font-size="14.00">&#45; token char(32) [PK]</text>
<text text-anchor="start" x="97.5455" y="-1332.4" font-family="Times Roman,serif" font-size="14.00">&#45; email text</text>
<text text-anchor="start" x="97.5455" y="-1315.4" font-family="Times Roman,serif" font-size="14.00">&#45; datetime timestamp [N]</text>
<text text-anchor="start" x="97.5455" y="-1298.4" font-family="Times Roman,serif" font-size="14.00">&#45; data text [N]</text>
</g>
<!-- node18 -->
<g id="node18" class="node"><title>node18</title>
<polygon fill="white" stroke="black" points="28.0455,-254 28.0455,-738 269.045,-738 269.045,-254 28.0455,-254"/>
<text text-anchor="middle" x="54.5455" y="-491.9" font-family="Times Roman,serif" font-size="14.00">users</text>
<polyline fill="none" stroke="black" points="81.0455,-254 81.0455,-738 "/>
<text text-anchor="start" x="89.0455" y="-721.4" font-family="Times Roman,serif" font-size="14.00">&#45; user_id integer [PA]</text>
<text text-anchor="start" x="89.0455" y="-704.4" font-family="Times Roman,serif" font-size="14.00">&#45; login text [U]</text>
<text text-anchor="start" x="89.0455" y="-687.4" font-family="Times Roman,serif" font-size="14.00">&#45; passwd text</text>
<text text-anchor="start" x="89.0455" y="-670.4" font-family="Times Roman,serif" font-size="14.00">&#45; session_id text [U,N]</text>
<text text-anchor="start" x="89.0455" y="-653.4" font-family="Times Roman,serif" font-size="14.00">&#45; salutation integer [N]</text>
<text text-anchor="start" x="89.0455" y="-636.4" font-family="Times Roman,serif" font-size="14.00">&#45; first_name text</text>
<text text-anchor="start" x="89.0455" y="-619.4" font-family="Times Roman,serif" font-size="14.00">&#45; last_name text [N]</text>
<text text-anchor="start" x="89.0455" y="-602.4" font-family="Times Roman,serif" font-size="14.00">&#45; nick_name text [N]</text>
<text text-anchor="start" x="89.0455" y="-585.4" font-family="Times Roman,serif" font-size="14.00">&#45; pseudonymous boolean</text>
<text text-anchor="start" x="89.0455" y="-568.4" font-family="Times Roman,serif" font-size="14.00">&#45; country text</text>
<text text-anchor="start" x="89.0455" y="-551.4" font-family="Times Roman,serif" font-size="14.00">&#45; town text [N]</text>
<text text-anchor="start" x="89.0455" y="-534.4" font-family="Times Roman,serif" font-size="14.00">&#45; web_page text [N]</text>
<text text-anchor="start" x="89.0455" y="-517.4" font-family="Times Roman,serif" font-size="14.00">&#45; pm_group text [N]</text>
<text text-anchor="start" x="89.0455" y="-500.4" font-family="Times Roman,serif" font-size="14.00">&#45; pm_group_url text [N]</text>
<text text-anchor="start" x="89.0455" y="-483.4" font-family="Times Roman,serif" font-size="14.00">&#45; email text</text>
<text text-anchor="start" x="89.0455" y="-466.4" font-family="Times Roman,serif" font-size="14.00">&#45; email_hide boolean</text>
<text text-anchor="start" x="89.0455" y="-449.4" font-family="Times Roman,serif" font-size="14.00">&#45; gpg_key_id text [N]</text>
<text text-anchor="start" x="89.0455" y="-432.4" font-family="Times Roman,serif" font-size="14.00">&#45; pause_id text [N]</text>
<text text-anchor="start" x="89.0455" y="-415.4" font-family="Times Roman,serif" font-size="14.00">&#45; monk_id text [N]</text>
<text text-anchor="start" x="89.0455" y="-398.4" font-family="Times Roman,serif" font-size="14.00">&#45; monk_name text [N]</text>
<text text-anchor="start" x="89.0455" y="-381.4" font-family="Times Roman,serif" font-size="14.00">&#45; im text [N]</text>
<text text-anchor="start" x="89.0455" y="-364.4" font-family="Times Roman,serif" font-size="14.00">&#45; photo_name text [N]</text>
<text text-anchor="start" x="89.0455" y="-347.4" font-family="Times Roman,serif" font-size="14.00">&#45; language text [N]</text>
<text text-anchor="start" x="89.0455" y="-330.4" font-family="Times Roman,serif" font-size="14.00">&#45; timezone text</text>
<text text-anchor="start" x="89.0455" y="-313.4" font-family="Times Roman,serif" font-size="14.00">&#45; company text [N]</text>
<text text-anchor="start" x="89.0455" y="-296.4" font-family="Times Roman,serif" font-size="14.00">&#45; company_url text [N]</text>
<text text-anchor="start" x="89.0455" y="-279.4" font-family="Times Roman,serif" font-size="14.00">&#45; address text [N]</text>
<text text-anchor="start" x="89.0455" y="-262.4" font-family="Times Roman,serif" font-size="14.00">&#45; vat text [N]</text>
</g>
<!-- node18&#45;&gt;node1 -->
<g id="edge12" class="edge"><title>node18&#45;&gt;node1</title>
<path fill="none" stroke="black" d="M269.199,-713.808C306.041,-777.237 340.538,-832.485 354.545,-843 366.891,-852.267 381.226,-859.34 396.054,-864.738"/>
<polygon fill="black" stroke="black" points="395.258,-868.163 405.852,-868.049 397.499,-861.532 395.258,-868.163"/>
</g>
<!-- node18&#45;&gt;node5 -->
<g id="edge14" class="edge"><title>node18&#45;&gt;node5</title>
<path fill="none" stroke="black" d="M269.218,-655.907C295.172,-683.49 324.049,-709.997 354.545,-731 363.896,-737.44 374.079,-743.245 384.595,-748.456"/>
<polygon fill="black" stroke="black" points="383.376,-751.752 393.91,-752.883 386.381,-745.429 383.376,-751.752"/>
</g>
<!-- node18&#45;&gt;node8 -->
<g id="edge16" class="edge"><title>node18&#45;&gt;node8</title>
<path fill="none" stroke="black" d="M269.409,-548.137C305.34,-563.637 344.761,-580.642 380.926,-596.243"/>
<polygon fill="black" stroke="black" points="379.97,-599.642 390.539,-600.389 382.743,-593.215 379.97,-599.642"/>
</g>
<!-- node18&#45;&gt;node9 -->
<g id="edge18" class="edge"><title>node18&#45;&gt;node9</title>
<path fill="none" stroke="black" d="M269.409,-496C293.607,-496 319.387,-496 344.689,-496"/>
<polygon fill="black" stroke="black" points="344.736,-499.5 354.736,-496 344.735,-492.5 344.736,-499.5"/>
</g>
<!-- node18&#45;&gt;node11 -->
<g id="edge20" class="edge"><title>node18&#45;&gt;node11</title>
<path fill="none" stroke="black" d="M269.139,-451.271C297.03,-441.483 326.696,-431.513 354.545,-423 369.877,-418.314 386.194,-413.709 402.221,-409.398"/>
<polygon fill="black" stroke="black" points="403.388,-412.709 412.151,-406.754 401.587,-405.945 403.388,-412.709"/>
</g>
<!-- node18&#45;&gt;node14 -->
<g id="edge22" class="edge"><title>node18&#45;&gt;node14</title>
<path fill="none" stroke="black" d="M269.409,-378.522C304.158,-344.747 342.17,-307.799 377.345,-273.609"/>
<polygon fill="black" stroke="black" points="380.075,-275.837 384.806,-266.357 375.196,-270.818 380.075,-275.837"/>
</g>
<!-- node18&#45;&gt;node17 -->
<g id="edge24" class="edge"><title>node18&#45;&gt;node17</title>
<path fill="none" stroke="black" d="M269.134,-392.222C295.813,-373.8 324.986,-356.767 354.545,-345 480.233,-294.966 524.223,-335.137 656.545,-307 700.923,-297.564 749.137,-283.543 789.749,-270.601"/>
<polygon fill="black" stroke="black" points="790.913,-273.903 799.364,-267.512 788.772,-267.239 790.913,-273.903"/>
</g>
</g>
</svg>
